<?xml version="1.0" standalone="no"?>
<!DOCTYPE svg PUBLIC "-//W3C//DTD SVG 20010904//EN"
 "http://www.w3.org/TR/2001/REC-SVG-20010904/DTD/svg10.dtd">
<svg version="1.0" xmlns="http://www.w3.org/2000/svg"
 width="612.000000pt" height="522.000000pt" viewBox="0 0 612.000000 522.000000"
 preserveAspectRatio="xMidYMid meet">

<g transform="translate(0.000000,522.000000) scale(0.100000,-0.100000)"
fill="#000000" stroke="none">
<path d="M2134 5197 c-28 -14 -61 -37 -73 -53 l-22 -29 -18 23 c-19 26 -81 39
-126 28 -52 -13 -108 -181 -72 -218 7 -7 16 -21 20 -30 4 -12 17 -18 40 -18
32 0 35 -3 45 -43 15 -60 56 -116 129 -177 34 -29 66 -66 72 -83 15 -41 14
-87 -1 -87 -22 0 -100 -57 -156 -112 -33 -33 -68 -83 -93 -133 l-40 -80 -374
-5 -374 -5 84 -60 c46 -33 158 -114 249 -180 l166 -120 0 -417 c0 -229 4 -419
9 -422 13 -9 23 171 22 403 -2 197 2 245 28 339 3 12 9 21 12 20 3 -2 13 5 22
14 10 10 42 19 82 23 50 6 65 11 65 24 1 9 16 -36 35 -99 36 -124 66 -208 111
-307 l28 -63 53 0 54 0 -6 -97 c-5 -86 -11 -112 -51 -212 -25 -63 -63 -141
-84 -173 -22 -32 -35 -58 -29 -58 5 0 3 -12 -4 -27 -44 -87 -45 -206 -4 -316
60 -156 79 -246 107 -482 11 -93 25 -207 32 -252 11 -76 10 -89 -16 -215 -55
-257 -65 -324 -66 -418 0 -109 15 -179 64 -295 80 -187 106 -313 107 -514 l1
-146 26 76 c24 68 29 75 47 68 32 -12 93 -10 130 5 19 8 35 14 36 13 0 -1 16
-54 35 -117 l34 -115 -4 73 -3 72 51 0 c52 0 210 30 257 48 15 6 42 24 61 41
l34 30 18 -31 c18 -29 102 -78 136 -78 8 0 -12 13 -45 29 -59 29 -71 42 -123
133 -45 80 -52 131 -59 398 -7 300 7 445 63 690 28 119 37 188 42 297 4 78 11
145 15 149 4 4 7 -46 8 -112 0 -65 4 -140 8 -165 4 -26 3 -163 -2 -305 -8
-223 -6 -279 8 -399 23 -183 58 -336 94 -410 24 -49 29 -72 29 -125 -1 -70 18
-122 51 -140 27 -14 151 -12 181 3 20 10 26 24 37 84 6 40 15 78 18 84 4 5
-16 -1 -44 -16 -38 -19 -52 -22 -55 -13 -2 7 -20 60 -40 118 -36 104 -87 283
-82 288 2 1 17 -19 34 -45 56 -87 112 -168 112 -162 0 7 -46 123 -69 174 -10
22 -28 60 -39 85 -11 25 -34 76 -51 114 -37 82 -38 90 -8 49 35 -48 148 -166
153 -160 3 2 -15 33 -39 68 -51 75 -107 181 -107 202 0 8 -24 66 -54 128 -30
63 -57 130 -61 149 -8 35 -7 35 35 -20 60 -76 118 -139 163 -177 62 -53 58
-38 -9 31 -57 57 -134 163 -134 182 0 5 16 -8 36 -27 41 -38 41 -37 3 66 -19
53 -20 66 -10 114 6 30 36 106 67 170 31 64 62 137 69 164 12 44 12 47 -6 47
-11 0 -38 -9 -59 -20 -45 -23 -47 -19 -23 42 24 61 84 145 179 248 110 121
108 119 66 60 -38 -53 -162 -262 -162 -274 0 -15 51 -3 84 19 20 14 39 25 41
25 3 0 -2 -15 -9 -32 -56 -129 -164 -463 -153 -474 4 -4 45 59 91 138 14 26
41 86 60 133 l33 86 -5 -154 c-5 -172 4 -330 20 -321 11 7 3 -93 -13 -168 -7
-32 -7 -90 1 -190 18 -219 23 -487 12 -538 -17 -70 -6 -59 17 18 50 166 62
361 37 577 -8 66 -12 133 -9 148 6 29 -22 164 -38 183 -6 7 0 70 15 165 22
139 42 294 48 389 2 19 9 -71 16 -200 8 -129 18 -273 24 -320 5 -47 12 -177
13 -290 4 -197 13 -331 34 -470 5 -36 11 -120 13 -188 l3 -123 28 -7 c16 -4
47 -5 70 -2 l42 5 -50 3 c-27 2 -54 7 -59 12 -11 11 40 35 96 45 34 7 36 5 43
-24 8 -38 2 -46 -64 -91 -119 -81 -102 -141 57 -199 164 -61 314 -49 337 27 5
18 1 25 -23 35 l-30 12 19 24 c28 35 24 96 -10 158 -16 29 -27 61 -24 72 3 12
-5 26 -24 41 -24 19 -38 21 -104 18 l-75 -3 -12 62 c-12 62 -55 202 -73 236
-18 32 -2 17 26 -26 15 -23 39 -55 54 -70 27 -30 99 -72 108 -64 14 14 -84
283 -172 472 -22 49 -40 107 -46 147 -5 38 -13 101 -19 140 -11 88 -13 188 -2
188 4 0 41 -56 82 -123 77 -125 78 -129 104 -297 l7 -45 -36 70 c-34 68 -91
142 -102 132 -11 -11 21 -125 52 -187 18 -36 51 -88 74 -115 23 -28 44 -65 47
-85 17 -96 94 -418 89 -375 -3 28 -9 111 -14 185 -6 74 -13 167 -17 205 -6 60
-5 68 7 59 13 -11 105 -38 180 -53 19 -4 41 -11 47 -15 7 -4 13 -1 13 6 1 7 5
-3 10 -22 12 -54 1 177 -21 410 -10 113 -25 278 -31 367 l-13 162 -47 6 -47 7
-7 188 -8 189 -27 6 -28 6 4 112 c2 62 4 114 5 117 1 3 3 21 4 40 5 132 5 130
23 130 14 0 15 2 2 9 -8 6 -17 8 -21 5 -4 -2 -9 5 -12 16 -3 11 -2 20 1 20 14
-1 52 -39 52 -52 0 -7 9 -19 20 -25 16 -11 18 -10 14 2 -4 8 -10 15 -15 15 -5
0 -9 6 -9 14 0 8 -15 27 -34 44 -28 24 -35 39 -41 83 -13 102 -45 274 -59 321
-11 35 -13 75 -9 158 3 60 7 109 8 108 2 -2 8 -59 15 -128 16 -170 17 -173 36
-277 17 -90 34 -115 34 -50 0 40 19 101 65 216 27 69 37 110 44 192 5 57 7
106 5 108 -2 2 -19 -28 -37 -67 l-34 -70 -11 114 c-9 97 -9 120 4 156 9 24 24
75 34 113 16 63 19 67 25 40 3 -16 26 -98 51 -181 24 -84 44 -159 44 -168 0
-14 6 -13 37 8 20 14 40 23 45 20 4 -3 8 -1 8 5 0 9 31 24 55 27 22 2 45 17
40 24 -5 9 26 23 41 18 11 -3 74 30 74 38 0 3 -17 -4 -37 -16 -21 -12 -31 -15
-23 -7 18 19 161 97 175 96 6 0 -16 -14 -49 -30 -32 -17 -56 -32 -54 -35 3 -2
55 24 117 57 62 34 110 63 107 66 -2 3 -24 -7 -49 -21 -24 -14 -48 -26 -53
-26 -20 0 83 53 107 55 27 2 548 284 584 316 18 16 76 48 234 131 l55 28 -790
0 -791 0 -32 40 c-50 62 -122 114 -208 150 -134 57 -201 76 -241 71 l-37 -5
50 -7 c112 -16 357 -187 394 -276 12 -30 11 -36 -22 -90 -43 -71 -99 -183 -92
-183 3 0 23 19 45 43 41 43 90 131 90 164 1 17 1 17 11 1 16 -29 -9 -144 -53
-243 -31 -69 -42 -106 -46 -161 l-4 -71 -74 41 c-74 42 -89 56 -56 56 51 0
192 143 192 194 0 18 -3 16 -19 -10 -18 -29 -161 -132 -205 -148 -10 -3 -40
-3 -67 0 l-48 6 49 25 c55 28 138 97 128 108 -4 4 -17 -2 -29 -14 -18 -17
-166 -81 -187 -81 -3 0 28 23 70 50 79 52 136 109 194 195 45 67 43 76 -8 28
-39 -35 -110 -87 -148 -108 -8 -4 1 10 21 31 44 48 142 184 136 190 -2 2 -51
-33 -109 -79 -136 -108 -163 -124 -223 -132 -27 -3 -63 -9 -80 -12 -26 -4 -23
0 30 40 82 62 137 135 179 240 26 66 35 108 14 72 -6 -11 -14 -22 -17 -25 -3
-3 -21 -25 -40 -49 -62 -80 -110 -115 -233 -169 -66 -30 -122 -52 -124 -49 -2
2 13 15 33 29 21 14 55 43 77 64 38 38 126 166 126 183 0 5 7 14 15 21 28 24
7 22 -27 -1 -42 -30 -186 -156 -263 -231 -69 -67 -76 -62 -47 39 32 111 34
123 18 123 -21 0 -108 -39 -129 -57 -22 -21 -28 -14 -34 39 -4 37 0 50 29 92
28 42 41 51 88 66 64 19 182 79 160 81 -8 1 -32 1 -53 1 -35 -1 -38 1 -32 21
21 70 68 92 182 84 90 -7 156 -35 183 -79 11 -19 20 -26 20 -17 0 37 -46 85
-115 119 -66 33 -74 35 -175 35 -89 0 -111 -3 -146 -22 -52 -28 -64 -43 -90
-112 -17 -47 -27 -59 -60 -75 -21 -10 -47 -25 -56 -33 -15 -14 -20 -11 -50 23
-86 102 -152 146 -237 160 -43 7 -48 13 -30 31 19 19 13 90 -10 119 -12 15
-18 30 -13 33 22 15 92 138 92 162 0 43 -18 81 -56 119 -19 19 -47 54 -64 77
-20 29 -48 51 -94 73 -57 28 -79 33 -159 37 -82 4 -98 1 -143 -20z m285 -376
c24 -15 24 -15 17 13 l-7 28 25 -28 c14 -16 26 -24 26 -17 0 7 7 10 15 7 10
-4 14 -14 10 -28 -2 -11 -2 -15 1 -8 10 21 26 13 19 -9 -5 -15 -4 -19 4 -15 6
4 11 3 11 -3 0 -5 -4 -11 -9 -13 -5 -1 -12 -16 -15 -33 l-6 -30 11 29 12 29
13 -39 c13 -37 12 -40 -13 -66 -21 -22 -24 -30 -14 -41 9 -12 -4 -15 -85 -16
-54 0 -115 -6 -136 -12 -58 -15 -98 -19 -98 -8 0 5 5 9 12 9 9 0 9 3 0 12 -10
10 -15 10 -22 -2 -5 -8 -12 -11 -16 -8 -7 8 54 48 74 48 7 0 30 11 53 25 22
14 45 23 51 19 7 -4 8 -3 4 5 -9 14 12 43 25 35 5 -3 6 3 2 12 -4 12 -3 15 5
10 25 -15 31 6 11 33 -17 23 -19 32 -10 50 8 14 8 21 1 21 -5 0 -10 12 -9 28
1 26 1 26 8 3 3 -13 17 -31 30 -40z m-235 -270 c3 -5 -1 -11 -9 -14 -9 -4 -12
-1 -8 9 6 16 10 17 17 5z m462 -12 c44 -27 90 -87 110 -141 8 -23 24 -88 35
-142 10 -54 21 -101 24 -104 3 -3 5 35 5 84 l0 89 36 -60 c32 -53 94 -173 94
-182 0 -2 -22 -3 -50 -3 -44 0 -55 -5 -91 -37 l-40 -37 -57 62 c-57 63 -117
112 -136 112 -5 0 5 -16 24 -35 l34 -35 -95 -2 c-51 -1 -113 -2 -136 -2 -23 0
-40 -3 -37 -7 2 -4 -2 -9 -8 -12 -28 -10 90 -19 187 -15 86 4 105 2 110 -10 6
-15 -10 -32 -31 -32 -14 0 -104 -50 -104 -57 0 -9 105 9 135 23 36 18 42 12
86 -81 24 -52 30 -83 44 -230 28 -296 83 -685 115 -805 16 -63 30 -115 30
-115 0 -1 -73 12 -162 27 -90 16 -219 32 -287 36 l-124 7 -20 55 c-14 41 -21
89 -23 185 l-4 130 39 -75 c21 -41 44 -95 52 -120 7 -25 16 -49 19 -53 13 -14
32 184 25 250 l-7 63 64 -66 c35 -37 62 -71 60 -76 -1 -5 2 -7 7 -3 6 3 31
-10 57 -30 26 -20 60 -43 77 -51 24 -13 27 -18 16 -26 -11 -8 -10 -9 4 -4 10
3 34 -1 53 -9 19 -8 34 -12 34 -9 0 3 -15 23 -32 44 -41 48 -89 137 -129 238
-41 103 -120 260 -160 319 -18 26 -55 72 -82 101 -28 28 -47 52 -44 52 18 0
125 -59 119 -65 -4 -5 -1 -5 6 -1 16 10 74 -32 66 -47 -4 -7 -3 -9 1 -4 5 4
19 0 33 -9 l24 -16 -7 34 c-13 58 -36 121 -67 180 -31 59 -120 154 -174 187
-38 23 -132 51 -173 51 -30 0 -30 1 -13 18 10 10 31 35 47 56 40 52 155 162
167 158 5 -1 7 2 4 7 -9 14 120 128 175 153 26 13 48 26 49 30 0 13 -92 21
-174 15 -174 -12 -312 -72 -427 -187 -89 -87 -133 -153 -156 -230 -10 -32 -18
-48 -21 -37 -5 24 57 153 106 219 98 132 271 232 482 278 117 25 175 25 216
-1z m2314 -429 c0 -6 33 -10 80 -10 64 0 80 -3 80 -15 0 -18 12 -19 28 -3 7 7
12 8 12 4 0 -5 -8 -15 -17 -23 -16 -13 -15 -14 12 -8 16 4 27 4 24 1 -10 -11
-124 -82 -214 -135 -49 -29 -97 -56 -105 -61 -8 -5 -71 -42 -140 -83 -69 -40
-165 -97 -215 -127 -49 -29 -110 -64 -135 -78 -25 -14 -78 -45 -119 -69 -48
-28 -77 -40 -81 -33 -4 6 -14 75 -24 153 -9 78 -27 180 -40 227 l-23 85 24 3
c12 2 23 8 23 13 0 5 6 9 14 9 7 0 34 18 59 40 25 22 49 40 55 40 5 0 15 7 22
15 15 18 68 45 87 45 8 0 11 5 8 10 -4 7 95 10 289 10 191 0 296 -4 296 -10z
m-2045 -72 c-3 -7 4 -24 15 -38 17 -21 21 -23 31 -10 8 12 9 7 5 -18 -4 -20
-2 -31 4 -27 6 3 10 -1 10 -10 0 -9 5 -13 10 -10 6 4 7 11 4 17 -4 7 -2 8 4 4
6 -4 9 -13 5 -21 -3 -8 0 -15 7 -15 7 0 10 -7 6 -17 -4 -10 -4 -14 0 -10 9 9
56 -72 49 -83 -3 -5 0 -12 6 -16 8 -5 9 -3 4 7 -16 28 9 -2 32 -38 14 -21 22
-30 19 -20 -3 10 -2 16 2 14 36 -19 53 -23 187 -40 177 -23 268 -41 249 -47
-12 -4 5 -12 49 -23 70 -18 105 -21 72 -7 -11 5 -15 9 -9 9 15 1 95 -35 90
-40 -2 -2 11 -4 30 -5 19 0 37 -4 41 -7 13 -14 15 -122 2 -152 -9 -23 -13 -26
-16 -12 -3 9 -8 17 -13 17 -5 0 -44 16 -87 36 l-78 35 40 19 40 19 -40 -7
c-79 -14 -651 2 -625 18 8 5 5 9 -9 13 -12 3 -19 1 -15 -4 10 -16 -13 -9 -28
9 -26 30 -31 42 -14 36 9 -3 16 -10 16 -15 0 -5 5 -9 12 -9 6 0 -1 14 -17 30
-16 17 -34 30 -41 30 -14 0 -36 50 -32 71 2 8 -2 13 -9 12 -9 -2 -10 4 -3 25
9 25 9 26 -5 8 -15 -20 -20 -12 -16 22 1 6 -2 12 -7 12 -13 0 -43 70 -36 82 4
6 3 8 -3 5 -6 -4 -15 5 -22 19 -14 31 -14 44 -1 44 6 0 10 -9 10 -20 0 -25 15
-26 24 -3 4 10 4 15 1 11 -3 -3 -18 6 -33 21 l-27 26 26 22 c41 35 92 53 84
31z m1075 -73 c0 -8 11 -40 25 -71 14 -31 25 -64 25 -74 0 -10 -15 -40 -33
-66 -18 -27 -48 -71 -66 -97 -18 -26 -37 -60 -41 -75 -6 -19 -8 -5 -9 53 -1
70 4 91 35 165 19 47 38 106 41 133 3 26 10 47 14 47 5 0 9 -7 9 -15z m-360
-299 c0 -2 -7 -7 -16 -10 -8 -3 -12 -2 -9 4 6 10 25 14 25 6z m30 -10 c0 -2
-7 -7 -16 -10 -8 -3 -12 -2 -9 4 6 10 25 14 25 6z m45 -253 c19 -9 35 -19 35
-23 0 -3 -36 -41 -80 -85 -44 -44 -80 -83 -80 -86 0 -9 74 -1 117 13 43 13 82
60 89 110 5 29 9 36 15 25 14 -23 -34 -122 -150 -310 -55 -90 -62 -109 -30
-82 13 12 49 37 80 58 31 21 71 56 88 78 18 22 35 38 37 36 3 -2 11 -44 19
-93 8 -49 33 -149 56 -221 24 -73 41 -135 38 -137 -8 -9 -205 -27 -253 -24
l-49 3 90 62 c96 67 128 95 96 87 -35 -10 -318 15 -365 31 l-47 16 84 82 c78
77 180 196 173 202 -3 3 -202 -45 -248 -60 -20 -6 -14 3 29 46 71 72 163 210
149 224 -3 3 -21 -3 -39 -13 -41 -24 -89 -39 -189 -62 -41 -9 -83 -21 -92 -25
-10 -4 -18 -3 -18 2 0 13 360 158 402 162 4 1 23 -7 43 -16z m-858 -733 c20
-98 -5 -913 -33 -1055 -53 -276 -60 -301 -129 -425 -36 -66 -79 -154 -95 -197
-49 -134 -91 -470 -80 -628 l5 -70 7 47 c4 26 27 130 51 230 25 101 54 234 66
296 12 62 38 166 59 230 l39 117 -4 -180 c-3 -176 -12 -249 -38 -330 -7 -22
-28 -87 -46 -145 -17 -58 -36 -111 -42 -118 -5 -7 -7 -16 -3 -19 12 -12 88 81
129 159 l25 47 6 -57 c10 -84 31 -151 66 -205 l30 -47 -31 -19 c-16 -10 -65
-24 -107 -31 -42 -7 -104 -20 -137 -30 -33 -10 -74 -21 -91 -25 l-32 -6 -6
108 c-12 180 -34 311 -88 507 -26 95 -29 122 -27 218 4 145 21 183 127 293
109 113 199 251 178 272 -3 3 -6 1 -6 -5 0 -6 -35 -38 -78 -71 -43 -32 -93
-75 -110 -95 l-32 -37 -2 33 c-7 140 -15 202 -34 246 -14 36 -40 193 -70 427
-13 108 -28 167 -51 205 -2 3 25 14 59 25 34 11 86 34 116 52 30 18 58 33 61
33 4 0 32 23 62 51 30 28 45 47 34 43 -11 -3 -54 -17 -96 -29 -77 -22 -183
-70 -229 -102 -14 -10 10 16 53 57 42 41 77 80 77 86 0 6 -21 9 -59 6 -32 -2
-61 0 -64 5 -3 5 17 23 46 40 29 16 84 49 124 72 40 23 74 45 77 49 2 4 74 7
160 7 l156 0 7 -35z m1047 -53 c-11 -84 -37 -613 -43 -880 l-6 -298 -74 98
-74 98 -13 110 c-7 61 -13 142 -14 181 l0 71 55 -53 c30 -30 57 -54 60 -54 18
0 -22 90 -81 180 -36 56 -43 76 -49 138 -7 68 -6 72 13 72 11 0 35 12 52 26
32 27 86 121 75 132 -3 3 -46 -2 -95 -12 -54 -11 -100 -16 -117 -11 -19 5 -23
9 -13 13 8 3 47 20 85 39 l70 34 -75 -6 c-72 -6 -172 -21 -208 -31 -20 -6 3 6
128 63 52 24 115 56 140 71 42 25 166 63 182 55 4 -2 5 -18 2 -36z m36 -1142
c25 -5 30 -12 30 -35 0 -27 -3 -29 -31 -25 -24 3 -29 1 -25 -11 3 -8 2 -13 -3
-9 -5 3 -11 -1 -14 -7 -2 -7 -8 -10 -13 -5 -4 4 -2 51 4 105 7 53 13 111 14
127 1 17 4 -7 5 -52 4 -81 4 -82 33 -88z m-1766 99 c30 -53 30 -55 15 -126
l-12 -53 -23 85 c-19 70 -24 140 -9 140 2 0 15 -21 29 -46z m163 -1105 c33
-28 42 -44 51 -93 15 -73 12 -76 -84 -76 l-71 0 4 88 c4 72 2 96 -16 142 -34
89 -27 98 28 32 27 -32 67 -74 88 -93z m1616 -21 c53 -97 68 -143 57 -172 -12
-32 -27 -36 -174 -47 -71 -5 -132 -11 -135 -14 -2 -3 4 -12 15 -20 18 -14 17
-15 -11 -9 -48 9 -77 27 -87 53 -8 22 -2 31 52 85 l61 61 -25 -55 c-28 -59
-32 -85 -16 -95 6 -3 10 4 10 16 0 13 12 40 27 62 26 38 34 96 22 162 -3 16 5
21 46 31 28 7 66 12 85 13 33 1 37 -3 73 -71z m17 57 c19 -23 8 -25 -14 -4
-11 11 -15 19 -9 19 6 0 16 -7 23 -15z m-859 -142 c5 -26 16 -53 25 -60 20
-15 134 -27 164 -18 17 5 20 4 15 -5 -10 -16 -162 -5 -183 12 -20 17 -39 59
-47 103 -6 32 -5 38 5 28 7 -6 16 -33 21 -60z m217 10 c-22 -51 -25 -52 -101
-46 -57 4 -76 10 -89 27 -24 30 -22 43 3 20 30 -27 112 -25 159 4 19 12 36 22
37 22 2 0 -3 -12 -9 -27z m702 -158 c21 -13 -2 -22 -72 -28 -40 -3 -100 -3
-133 1 l-60 8 79 8 c44 4 89 12 100 16 22 8 69 5 86 -5z"/>
<path d="M2402 4789 c1 -17 6 -29 15 -29 18 0 17 46 -1 53 -11 4 -14 -2 -14
-24z"/>
<path d="M2296 4624 c-11 -8 -16 -14 -10 -14 13 0 39 18 34 24 -3 2 -14 -2
-24 -10z"/>
<path d="M2225 4600 c-11 -5 -14 -9 -7 -9 6 -1 12 -9 12 -18 0 -15 2 -16 9 -3
6 8 7 18 4 23 -3 5 5 6 18 2 19 -5 21 -4 9 4 -17 12 -18 12 -45 1z"/>
<path d="M2664 4488 c17 -56 30 -114 46 -210 14 -85 25 -119 49 -156 31 -48
40 -46 20 5 -6 15 -15 65 -20 109 -9 90 -35 167 -75 229 -14 22 -23 32 -20 23z"/>
<path d="M2577 4421 c-10 -16 -53 -71 -96 -122 -71 -83 -127 -166 -118 -175 2
-2 39 15 82 39 114 61 160 135 153 243 l-3 46 -18 -31z"/>
<path d="M2620 4275 c0 -95 1 -98 16 -76 28 39 30 105 5 143 l-21 33 0 -100z"/>
<path d="M2405 4249 c-4 -6 -5 -12 -2 -15 2 -3 7 2 10 11 7 17 1 20 -8 4z"/>
<path d="M2350 4159 c0 -5 5 -7 10 -4 6 3 10 8 10 11 0 2 -4 4 -10 4 -5 0 -10
-5 -10 -11z"/>
<path d="M2592 3823 c13 -27 27 -60 32 -75 5 -17 64 -53 72 -45 6 6 -34 76
-59 105 -19 20 -53 32 -45 15z"/>
<path d="M2507 3639 c7 -7 15 -10 18 -7 3 3 -2 9 -12 12 -14 6 -15 5 -6 -5z"/>
<path d="M2574 3571 c0 -11 3 -18 6 -16 3 2 14 -26 24 -63 10 -37 27 -82 38
-100 20 -33 139 -155 145 -149 8 8 -32 117 -63 174 -32 57 -127 173 -143 173
-4 0 -7 -9 -7 -19z"/>
<path d="M2540 3084 c0 -24 172 -234 191 -234 11 0 2 72 -13 115 -16 43 -46
73 -94 95 -57 25 -84 33 -84 24z"/>
<path d="M4818 4103 c12 -2 32 -2 45 0 12 2 2 4 -23 4 -25 0 -35 -2 -22 -4z"/>
<path d="M2852 4006 c-30 -21 -31 -24 -12 -29 11 -3 17 -1 14 4 -3 5 5 18 18
29 33 27 18 25 -20 -4z"/>
<path d="M2940 3703 c0 -4 5 -15 10 -23 8 -13 10 -13 10 2 0 9 -4 20 -10 23
-5 3 -10 3 -10 -2z"/>
<path d="M3747 2999 c-28 -15 -44 -33 -58 -65 -27 -64 -25 -69 24 -42 42 23
82 82 75 112 -2 12 -10 11 -41 -5z"/>
<path d="M2750 2639 c-7 -12 -29 -40 -50 -63 -56 -61 -210 -311 -210 -341 0
-27 226 296 261 372 21 46 20 72 -1 32z"/>
<path d="M2801 2623 c-2 -35 -29 -107 -81 -216 -65 -138 -71 -159 -125 -417
-67 -322 -91 -404 -147 -483 l-22 -32 22 19 c93 81 181 304 246 626 13 69 40
175 59 235 42 133 60 220 54 260 -3 21 -4 23 -6 8z"/>
<path d="M2607 2312 c-16 -26 -46 -72 -67 -102 -70 -100 -107 -233 -115 -415
l-6 -120 61 195 c56 178 85 264 141 419 27 71 20 82 -14 23z"/>
<path d="M2750 1484 c-8 -16 -54 -77 -102 -136 -99 -124 -123 -168 -143 -264
-19 -96 -30 -244 -18 -244 6 0 13 21 17 46 13 96 84 283 140 369 58 89 129
231 124 247 -2 5 -10 -3 -18 -18z"/>
<path d="M3033 4805 c-9 -24 1 -27 15 -5 8 13 8 20 2 20 -6 0 -13 -7 -17 -15z"/>
<path d="M3070 4775 c0 -14 2 -25 4 -25 2 0 6 11 8 25 3 14 1 25 -3 25 -5 0
-9 -11 -9 -25z"/>
<path d="M2978 4744 c-16 -37 -18 -51 -9 -68 8 -13 10 -15 6 -3 -2 10 -1 25 4
35 13 27 30 82 25 82 -3 0 -14 -21 -26 -46z"/>
<path d="M3130 4774 c0 -8 5 -12 10 -9 6 4 8 11 5 16 -9 14 -15 11 -15 -7z"/>
<path d="M3170 4766 c0 -14 4 -27 8 -30 5 -3 6 8 4 25 -5 35 -12 38 -12 5z"/>
<path d="M3513 4772 c10 -11 24 -39 31 -63 10 -31 14 -37 15 -21 1 32 -26 89
-47 97 -14 5 -14 4 1 -13z"/>
<path d="M3236 4764 c-3 -9 -2 -23 4 -32 7 -14 9 -10 10 16 0 35 -5 41 -14 16z"/>
<path d="M3450 4773 c0 -13 29 -38 35 -31 3 3 -4 13 -15 23 -11 10 -20 13 -20
8z"/>
<path d="M3400 4759 c0 -9 7 -22 15 -29 19 -16 19 0 0 26 -12 16 -14 16 -15 3z"/>
<path d="M3276 4752 c-2 -4 -1 -14 5 -22 7 -12 9 -10 9 8 0 23 -5 28 -14 14z"/>
<path d="M3350 4752 c0 -12 19 -26 26 -19 2 2 -2 10 -11 17 -9 8 -15 8 -15 2z"/>
<path d="M3310 4735 c0 -8 4 -15 10 -15 5 0 7 7 4 15 -4 8 -8 15 -10 15 -2 0
-4 -7 -4 -15z"/>
<path d="M3533 4650 c0 -24 2 -26 14 -14 12 12 12 16 0 28 -12 12 -14 10 -14
-14z"/>
<path d="M2951 4655 c0 -11 4 -27 9 -35 9 -13 10 -13 9 0 0 8 -4 24 -9 35 l-9
20 0 -20z"/>
<path d="M3525 4600 c3 -5 1 -20 -5 -32 -11 -22 -10 -22 4 -4 18 23 21 46 5
46 -5 0 -7 -4 -4 -10z"/>
<path d="M2926 4578 c-9 -12 -16 -32 -16 -44 0 -23 45 -84 62 -84 5 0 3 7 -5
15 -9 8 -18 29 -22 46 -5 23 -9 28 -16 18 -6 -10 -9 -8 -9 9 0 15 4 21 11 16
7 -4 10 -1 7 7 -3 8 2 19 11 26 10 8 11 12 4 13 -6 0 -19 -10 -27 -22z"/>
<path d="M2980 4561 c0 -5 5 -13 10 -16 6 -3 10 -2 10 4 0 5 -4 13 -10 16 -5
3 -10 2 -10 -4z"/>
<path d="M3601 4554 c0 -11 3 -14 6 -6 3 7 2 16 -1 19 -3 4 -6 -2 -5 -13z"/>
<path d="M3273 4405 c-71 -15 -134 -56 -183 -116 -17 -22 -29 -39 -26 -39 3 0
38 21 78 47 40 26 106 61 146 79 110 48 106 55 -15 29z"/>
<path d="M3397 4378 c-53 -29 -183 -145 -173 -155 2 -2 31 12 65 32 61 36 196
154 176 154 -5 0 -36 -14 -68 -31z"/>
<path d="M1162 3263 c-7 -159 -12 -307 -12 -331 l0 -43 126 -60 c69 -32 132
-59 140 -59 8 0 14 10 14 23 1 12 3 38 5 57 2 19 9 140 15 269 10 194 9 236
-2 242 -7 4 -65 48 -130 98 -64 50 -122 91 -130 91 -12 0 -16 -53 -26 -287z
m184 101 l79 -61 -7 -124 c-3 -68 -7 -168 -8 -221 -1 -54 -4 -98 -6 -98 -11 0
-185 93 -181 97 3 2 37 -12 76 -31 39 -20 76 -36 82 -36 7 0 9 16 4 53 -4 28
-8 93 -10 142 -4 134 -4 132 -21 149 -21 22 -46 20 -75 -5 -20 -17 -24 -31
-27 -94 -3 -51 -8 -75 -18 -79 -16 -6 -18 31 -7 252 6 132 7 141 23 130 10 -7
53 -40 96 -74z"/>
<path d="M4139 3334 c-79 -132 -88 -219 -35 -337 14 -32 26 -62 26 -68 0 -12
-43 -1 -48 12 -7 18 -45 8 -78 -20 -25 -23 -29 -31 -18 -35 30 -11 110 -6 131
9 21 15 23 13 51 -27 33 -48 32 -45 32 -94 0 -20 4 -33 10 -29 20 12 -4 -31
-29 -52 -15 -13 -20 -22 -13 -23 8 0 26 13 42 29 25 25 28 34 23 67 -6 43 -23
75 -60 115 -23 26 -23 26 -8 92 12 50 15 112 13 244 l-3 178 -36 -61z"/>
<path d="M1594 2845 c0 -60 1 -84 3 -52 2 32 2 81 0 110 -2 29 -3 3 -3 -58z"/>
<path d="M5749 2918 c0 -2 -2 -10 -4 -18 -6 -31 -165 -364 -177 -372 -15 -9
-4 -11 55 -8 l37 2 0 -210 c0 -162 3 -210 13 -209 22 3 242 -14 260 -19 24 -7
21 -31 -5 -37 -21 -6 -21 -7 -14 -224 3 -120 6 -338 7 -485 1 -257 2 -267 19
-256 10 7 16 16 14 20 -3 4 4 8 16 8 12 0 18 4 15 10 -3 6 0 10 9 10 20 0 13
-32 -10 -41 -17 -7 -17 -8 4 -8 12 -1 22 4 22 10 0 5 3 8 8 6 4 -3 13 2 21 10
12 13 11 14 -7 9 -21 -7 -21 -6 -7 41 19 60 19 73 1 73 -8 0 -17 4 -21 9 -3 6
7 6 26 1 17 -5 36 -8 43 -7 6 1 10 -3 9 -9 -1 -6 5 -11 13 -11 28 0 -30 48
-101 83 -69 33 -70 34 -32 34 l37 0 0 330 0 330 45 28 c41 24 45 31 45 64 l0
38 -50 0 -50 0 5 73 c19 262 35 651 28 657 -18 16 -270 78 -274 68z m305
-1663 c11 -8 15 -15 10 -15 -6 0 -19 7 -30 15 -10 8 -14 14 -9 14 6 0 19 -6
29 -14z"/>
<path d="M5680 2896 c0 -2 7 -7 16 -10 8 -3 12 -2 9 4 -6 10 -25 14 -25 6z"/>
<path d="M5613 2883 c9 -2 23 -2 30 0 6 3 -1 5 -18 5 -16 0 -22 -2 -12 -5z"/>
<path d="M599 2832 l-46 -15 -7 -136 c-3 -75 -9 -314 -12 -531 -4 -217 -9
-435 -13 -485 l-6 -90 -53 -6 c-29 -4 -56 -9 -59 -12 -11 -12 17 -42 49 -52
28 -10 33 -17 36 -48 2 -20 1 -37 -3 -37 -3 0 -20 13 -38 29 -17 16 -61 51
-96 78 -37 27 -73 64 -84 85 -34 67 -34 155 0 273 3 13 2 17 -5 10 -22 -22
-56 -152 -56 -211 1 -100 25 -137 160 -238 64 -47 137 -97 163 -110 55 -28
144 -47 215 -45 l51 2 -42 6 c-24 4 -46 11 -50 16 -9 8 93 3 337 -19 99 -9
161 -11 172 -5 21 11 238 38 318 40 l55 1 -35 12 -35 13 29 7 c27 7 68 26 170
80 l49 26 -40 0 c-56 0 -128 -24 -171 -57 -20 -15 -40 -27 -44 -25 -5 1 -8 -3
-8 -8 0 -6 -20 -10 -45 -10 -39 0 -47 3 -55 25 -6 14 -15 37 -21 53 l-12 27
-7 -25 c-9 -32 -18 -12 -22 50 l-3 45 -40 -1 c-60 -2 -20 12 105 36 58 11 116
23 130 26 25 5 25 5 26 -65 0 -89 19 -115 21 -30 0 33 4 63 8 67 3 4 26 -14
51 -40 24 -26 44 -43 44 -39 0 19 -63 93 -86 101 -23 9 -24 11 -10 26 13 13
23 44 14 44 -2 0 -124 -20 -273 -45 -148 -25 -283 -45 -300 -44 l-30 1 34 10
c24 7 31 12 22 18 -8 4 -10 13 -7 19 9 14 -39 15 -115 2 -53 -9 -234 -23 -214
-16 6 2 22 6 38 9 33 8 36 26 5 26 -20 1 -21 2 -6 10 17 10 80 20 437 66 107
14 198 27 203 30 4 3 8 180 8 393 0 299 -3 391 -12 399 -13 10 -62 23 -108 28
-36 4 -219 54 -260 70 l-35 14 35 -6 c54 -10 151 -11 137 -1 -7 5 0 7 20 5 18
-3 30 -1 27 4 -3 5 7 6 23 3 26 -5 27 -5 4 5 -16 7 -35 7 -60 0 -51 -14 -74
-10 -27 4 l39 12 -164 48 c-90 27 -211 63 -269 80 -100 31 -107 31 -151 18z
m258 -138 c-3 -3 -12 -4 -19 -1 -8 3 -5 6 6 6 11 1 17 -2 13 -5z m237 -19
c-19 -29 -20 -29 -30 -13 -4 7 -3 8 4 4 7 -4 12 -1 12 8 0 12 9 20 28 25 1 1
-5 -10 -14 -24z m-357 -127 c-2 -29 -3 -8 -3 47 0 55 1 79 3 53 2 -26 2 -71 0
-100z m363 -9 c20 -5 57 -9 82 -10 l47 -2 -49 -56 c-64 -75 -105 -152 -126
-236 -26 -107 -70 -190 -146 -277 -69 -78 -121 -120 -100 -81 7 12 7 25 1 36
-12 21 -5 22 15 1 9 -8 16 -11 16 -5 0 5 -4 13 -10 16 -16 10 -12 268 6 375 9
52 18 110 21 129 14 85 59 122 148 120 33 -1 76 -5 95 -10z m-371 -753 c-9 -8
-10 -5 -5 14 3 14 7 169 8 345 l3 320 2 -334 c3 -243 0 -338 -8 -345z m308
-182 c-3 -3 -12 -4 -19 -1 -8 3 -5 6 6 6 11 1 17 -2 13 -5z m-54 -31 c-7 -2
-21 -2 -30 0 -10 3 -4 5 12 5 17 0 24 -2 18 -5z m370 -210 c-7 -2 -19 -2 -25
0 -7 3 -2 5 12 5 14 0 19 -2 13 -5z m-670 -40 c-7 -2 -19 -2 -25 0 -7 3 -2 5
12 5 14 0 19 -2 13 -5z m502 -13 c3 -5 1 -10 -4 -10 -6 0 -11 5 -11 10 0 6 2
10 4 10 3 0 8 -4 11 -10z"/>
<path d="M3997 2821 c18 -11 35 -32 39 -47 5 -19 9 -22 15 -12 5 7 9 20 9 28
0 13 -1 13 -10 0 -8 -13 -10 -13 -10 2 0 22 20 34 30 19 6 -11 56 -41 67 -41
3 0 -9 14 -27 30 -33 31 -54 37 -65 20 -9 -14 -25 -12 -22 3 1 7 -10 13 -28
15 l-30 3 32 -20z"/>
<path d="M4870 2551 l-105 -238 -95 -6 c-52 -4 -184 -7 -293 -7 l-198 0 5 -32
c3 -18 13 -94 22 -168 9 -74 18 -137 19 -138 2 -2 76 -3 164 -3 l161 2 0 -51
c0 -59 14 -57 -182 -31 -94 12 -138 14 -138 7 0 -6 5 -49 10 -96 11 -98 45
-531 55 -700 4 -63 11 -133 15 -155 l8 -40 1 38 c1 37 2 38 29 33 113 -23 675
-45 686 -27 4 6 13 11 19 11 7 0 6 -4 -3 -11 -11 -8 -6 -9 20 -4 19 4 48 7 64
6 16 -1 37 1 47 4 18 6 19 27 19 536 0 498 -1 529 -17 527 -10 -2 -45 1 -78 5
-72 9 -259 36 -297 42 l-27 4 -3 -249 c-2 -137 0 -246 4 -242 4 4 12 50 18
102 14 128 35 201 61 223 12 10 24 15 27 13 3 -3 -6 -14 -18 -24 -26 -21 -59
-150 -60 -235 0 -61 -18 -137 -38 -160 -8 -9 -12 -20 -9 -24 4 -3 7 -1 7 5 0
7 3 12 8 12 4 0 9 -94 10 -210 l4 -209 -26 -7 c-55 -14 -56 -11 -56 196 0 150
-3 194 -14 205 -22 22 -50 153 -50 235 0 60 6 87 27 134 32 70 33 81 7 188
-11 46 -20 88 -20 93 0 12 97 35 144 35 16 0 41 11 58 25 48 41 143 32 196
-18 13 -12 32 -23 43 -23 37 -3 39 -4 39 -24 0 -14 9 -21 38 -26 20 -4 43 -11
50 -17 10 -8 12 35 12 225 l-1 236 -42 -5 c-23 -3 -43 -7 -45 -8 -1 -1 -3 -51
-5 -112 l-2 -110 -134 -7 c-187 -9 -472 -6 -406 4 28 5 81 9 118 9 55 1 69 4
74 19 3 9 50 119 103 244 88 206 99 239 81 238 -3 0 -53 -108 -111 -239z m297
-143 c-2 -18 -4 -4 -4 32 0 36 2 50 4 33 2 -18 2 -48 0 -65z m20 70 c-3 -8 -6
-5 -6 6 -1 11 2 17 5 13 3 -3 4 -12 1 -19z m-219 -657 c20 -6 43 -6 57 -1 18
7 27 4 43 -13 39 -44 42 -77 42 -452 l0 -362 -25 -11 c-34 -16 -164 -15 -193
1 l-24 12 1 374 c1 248 5 381 13 395 8 16 48 66 52 66 1 0 16 -4 34 -9z"/>
<path d="M1120 2630 c34 -11 60 -11 35 0 -11 5 -29 8 -40 8 -16 0 -15 -2 5 -8z"/>
<path d="M1188 2633 c6 -2 18 -2 25 0 6 3 1 5 -13 5 -14 0 -19 -2 -12 -5z"/>
<path d="M1591 2604 c0 -11 3 -14 6 -6 3 7 2 16 -1 19 -3 4 -6 -2 -5 -13z"/>
<path d="M1591 2564 c0 -11 3 -14 6 -6 3 7 2 16 -1 19 -3 4 -6 -2 -5 -13z"/>
<path d="M5545 2559 c-4 -6 -5 -12 -2 -15 2 -3 7 2 10 11 7 17 1 20 -8 4z"/>
<path d="M5390 2520 l-55 -7 50 0 c28 0 64 3 80 7 26 7 27 8 5 7 -14 0 -50 -3
-80 -7z"/>
<path d="M4453 2363 c-18 -2 -33 -8 -33 -13 0 -4 17 -6 38 -3 20 2 89 8 152
12 l115 8 -120 0 c-66 0 -135 -2 -152 -4z"/>
<path d="M4027 2188 c2 -62 6 -141 9 -175 l6 -63 35 0 35 0 -6 63 c-3 34 -8
98 -11 142 -10 138 -12 145 -44 145 l-27 0 3 -112z"/>
<path d="M5588 2083 c12 -2 32 -2 45 0 12 2 2 4 -23 4 -25 0 -35 -2 -22 -4z"/>
<path d="M4688 2074 c-6 -5 9 -94 17 -102 3 -3 5 18 5 46 0 46 -9 70 -22 56z"/>
<path d="M5405 2070 c-19 -8 -19 -9 2 -9 12 -1 30 -4 40 -7 14 -5 15 -4 4 4
-11 8 -7 11 20 15 33 4 33 4 -6 5 -22 0 -49 -3 -60 -8z"/>
<path d="M5338 2063 c7 -3 16 -2 19 1 4 3 -2 6 -13 5 -11 0 -14 -3 -6 -6z"/>
<path d="M5263 2053 c9 -2 25 -2 35 0 9 3 1 5 -18 5 -19 0 -27 -2 -17 -5z"/>
<path d="M4141 2034 c0 -11 3 -14 6 -6 3 7 2 16 -1 19 -3 4 -6 -2 -5 -13z"/>
<path d="M5368 2033 c7 -3 16 -2 19 1 4 3 -2 6 -13 5 -11 0 -14 -3 -6 -6z"/>
<path d="M5635 2030 c-55 -4 -126 -8 -158 -9 l-58 -1 2 -467 1 -468 -23 -6
c-50 -12 -49 -18 -49 478 0 420 -2 465 -16 459 -9 -3 -25 -6 -35 -6 -20 0 -20
-8 -18 -467 2 -258 5 -497 8 -533 l6 -65 42 -3 c24 -2 50 1 60 6 12 7 2 8 -33
5 -27 -3 -47 -3 -44 0 6 7 106 17 187 20 28 1 55 5 59 10 4 4 28 7 53 6 l46
-1 -55 -14 c-30 -7 -61 -11 -68 -9 -8 3 -23 -2 -35 -10 -12 -8 -37 -16 -57
-16 -19 -1 -48 -5 -65 -10 -23 -6 -18 -7 20 -3 85 8 125 16 121 23 -2 3 12 7
32 7 45 1 241 46 224 52 -9 3 -8 7 2 18 19 18 27 18 20 -1 -4 -8 -2 -15 4 -15
5 0 12 10 16 23 3 12 6 244 6 515 l0 492 -47 -2 c-27 -1 -93 -5 -148 -8z m145
-984 c0 -2 -7 -7 -16 -10 -8 -3 -12 -2 -9 4 6 10 25 14 25 6z m-50 -41 c-43
-17 -50 -17 -50 -6 0 10 28 18 65 19 12 0 5 -5 -15 -13z"/>
<path d="M4152 1940 c0 -14 2 -19 5 -12 2 6 2 18 0 25 -3 6 -5 1 -5 -13z"/>
<path d="M4172 1940 c0 -14 2 -19 5 -12 2 6 2 18 0 25 -3 6 -5 1 -5 -13z"/>
<path d="M180 1930 c-98 -33 -147 -114 -133 -216 l6 -48 17 50 c25 76 64 137
122 188 29 25 50 46 48 46 -3 -1 -30 -9 -60 -20z"/>
<path d="M4164 1826 c33 -344 53 -635 66 -936 6 -146 15 -301 18 -345 7 -74 9
-80 31 -83 13 -2 27 0 31 5 5 4 2 76 -6 158 -7 83 -21 227 -29 320 -16 175
-25 270 -50 530 -8 83 -19 211 -26 286 -9 109 -15 136 -27 136 -12 0 -13 -12
-8 -71z m13 2 c-3 -8 -6 -5 -6 6 -1 11 2 17 5 13 3 -3 4 -12 1 -19z m80 -950
c-3 -8 -6 -5 -6 6 -1 11 2 17 5 13 3 -3 4 -12 1 -19z m47 -374 c3 -8 2 -12 -4
-9 -6 3 -10 10 -10 16 0 14 7 11 14 -7z m-9 -33 c-6 -5 -25 10 -25 20 0 5 6 4
14 -3 8 -7 12 -15 11 -17z"/>
<path d="M4683 1814 c-23 -52 -25 -64 -20 -153 5 -95 33 -213 45 -195 4 6 18
18 32 27 13 9 19 17 13 17 -7 0 -15 -4 -18 -10 -21 -34 -26 4 -23 180 2 105 2
190 0 190 -2 0 -15 -25 -29 -56z"/>
<path d="M3 1606 c13 -134 76 -212 201 -247 29 -8 30 -7 11 6 -80 59 -167 186
-190 278 -4 15 -12 27 -18 27 -6 0 -8 -23 -4 -64z"/>
<path d="M3293 1629 c-6 -6 -22 -16 -35 -23 -22 -10 -75 -103 -65 -113 11 -10
88 39 100 65 30 59 30 101 0 71z"/>
<path d="M1824 1581 c-34 -20 -74 -71 -74 -92 0 -8 8 -2 17 11 10 14 29 35 43
47 l25 21 11 -76 10 -77 8 45 c4 25 4 66 -1 92 l-8 48 -31 -19z"/>
<path d="M4753 1535 c0 -7 6 -11 14 -8 7 3 13 6 13 8 0 2 -6 5 -13 8 -8 3 -14
-1 -14 -8z"/>
<path d="M1503 1495 c0 -27 2 -38 4 -22 2 15 2 37 0 50 -2 12 -4 0 -4 -28z"/>
<path d="M3282 1460 c-12 -12 -22 -24 -22 -28 0 -5 -14 -22 -30 -39 l-31 -31
47 -36 c26 -20 53 -36 60 -36 7 0 19 -3 28 -6 13 -5 16 1 16 27 0 37 -22 126
-37 153 -8 15 -11 14 -31 -4z"/>
<path d="M1891 1359 c17 -40 -5 -132 -41 -167 -22 -22 -127 -72 -152 -72 -2 0
-3 17 -1 38 l3 37 -13 -40 c-19 -57 -50 -114 -85 -158 -62 -77 -65 -151 -12
-244 36 -62 71 -83 137 -82 l48 1 -35 10 c-71 20 -81 28 -107 84 -33 72 -29
140 10 200 15 22 32 63 39 90 12 49 12 50 68 67 132 38 207 163 145 242 -15
19 -15 19 -4 -6z"/>
<path d="M240 1300 c69 -37 220 -87 289 -96 43 -5 51 -10 45 -23 -30 -70 -36
-100 -31 -156 8 -83 44 -179 100 -261 42 -62 137 -174 137 -161 0 3 -16 34
-36 69 -48 85 -118 232 -139 293 -20 58 -30 193 -16 214 7 12 15 13 34 4 24
-11 35 -48 11 -39 -7 3 -11 0 -9 -7 2 -7 6 -42 9 -78 5 -72 14 -118 26 -134 4
-5 10 -23 14 -38 4 -16 11 -25 17 -21 8 4 9 -1 4 -16 -5 -15 -4 -20 4 -16 6 4
11 0 11 -9 0 -10 -5 -13 -12 -9 -7 4 -8 3 -4 -5 4 -6 11 -9 16 -6 4 3 11 -2
14 -11 3 -8 10 -12 16 -9 5 3 7 0 4 -9 -6 -16 39 -90 49 -79 4 3 7 -14 7 -39
0 -29 -9 -62 -26 -94 -22 -41 -25 -59 -22 -110 4 -69 43 -144 88 -172 l25 -16
-23 26 c-27 30 -52 106 -52 158 0 25 12 57 35 96 19 32 35 65 35 73 1 13 3 12
11 -2 6 -11 12 -26 13 -35 2 -9 9 -18 17 -20 8 -3 11 -1 7 3 -4 4 12 17 35 29
23 12 41 27 40 34 -2 6 1 12 7 12 16 0 49 29 138 119 45 47 82 81 82 77 0 -5
7 -3 15 4 22 18 31 -12 15 -51 -23 -55 -95 -115 -202 -169 -118 -59 -146 -83
-157 -132 -12 -53 6 -145 30 -151 26 -7 24 -22 -8 -53 l-28 -26 25 7 c37 11
50 24 50 51 0 17 -7 25 -25 30 -22 5 -25 12 -25 47 0 38 1 39 18 24 9 -8 30
-19 46 -23 l30 -7 -32 56 -32 56 88 46 c146 75 206 141 242 263 10 33 18 42
35 42 30 0 95 28 95 40 0 6 -6 10 -13 10 -7 0 -33 18 -57 40 -24 22 -50 40
-57 40 -18 0 -63 48 -63 68 0 10 -18 33 -40 52 -44 38 -49 50 -22 50 14 0 15
2 2 10 -9 6 -17 5 -21 -1 -4 -6 -24 6 -48 30 -32 31 -50 41 -74 41 -18 0 -37
4 -43 9 -5 6 -69 11 -142 12 -111 2 -135 -1 -150 -15 -10 -9 -21 -15 -23 -14
-2 2 2 -3 10 -9 13 -11 13 -13 0 -13 -8 0 -19 4 -25 9 -30 28 -269 96 -399
114 l-40 6 55 -29z m550 -585 c0 -4 -9 4 -20 18 -11 14 -20 28 -20 32 0 4 9
-4 20 -18 11 -14 20 -28 20 -32z"/>
<path d="M6096 1163 c-6 -14 -5 -15 5 -6 7 7 10 15 7 18 -3 3 -9 -2 -12 -12z"/>
<path d="M5948 1063 c7 -3 16 -2 19 1 4 3 -2 6 -13 5 -11 0 -14 -3 -6 -6z"/>
<path d="M5910 971 l0 -90 -25 3 c-35 4 -43 14 -48 61 l-4 40 -1 -46 c-2 -53
9 -66 53 -65 l30 1 5 93 c3 50 2 92 -2 92 -5 0 -8 -40 -8 -89z"/>
<path d="M2911 940 c-1 -19 -3 -73 -3 -120 0 -51 -3 -75 -8 -60 -3 14 -5 -22
-2 -80 2 -58 2 -102 -2 -99 -3 3 -9 84 -12 180 -4 96 -7 175 -9 177 -1 2 -6
-93 -10 -210 -3 -117 -8 -225 -11 -239 -3 -20 2 -29 21 -39 17 -9 29 -10 35
-4 7 7 9 107 7 270 -1 142 -4 243 -6 224z m-8 -467 c-7 -2 -19 -2 -25 0 -7 3
-2 5 12 5 14 0 19 -2 13 -5z"/>
<path d="M5455 960 c-3 -5 1 -10 9 -10 8 0 18 5 21 10 3 6 -1 10 -9 10 -8 0
-18 -4 -21 -10z"/>
<path d="M5320 920 c-12 -8 -11 -10 8 -10 12 0 22 5 22 10 0 13 -11 13 -30 0z"/>
<path d="M5110 890 l-25 -8 28 -1 c15 -1 27 4 27 9 0 6 -1 10 -2 9 -2 -1 -14
-5 -28 -9z"/>
<path d="M5201 879 c0 -9 6 -22 14 -29 20 -17 65 -4 65 18 0 10 -3 13 -8 7
-12 -17 -60 -15 -65 4 -4 15 -5 15 -6 0z"/>
<path d="M5018 873 c12 -2 30 -2 40 0 9 3 -1 5 -23 4 -22 0 -30 -2 -17 -4z"/>
<path d="M4943 863 c9 -2 23 -2 30 0 6 3 -1 5 -18 5 -16 0 -22 -2 -12 -5z"/>
<path d="M4858 853 c6 -2 18 -2 25 0 6 3 1 5 -13 5 -14 0 -19 -2 -12 -5z"/>
<path d="M4311 833 c-1 -21 3 -23 42 -21 l42 1 -37 4 c-24 3 -38 10 -41 21 -3
12 -5 11 -6 -5z"/>
<path d="M4738 843 c12 -2 32 -2 45 0 12 2 2 4 -23 4 -25 0 -35 -2 -22 -4z"/>
<path d="M4633 833 c9 -2 23 -2 30 0 6 3 -1 5 -18 5 -16 0 -22 -2 -12 -5z"/>
<path d="M4498 823 c12 -2 32 -2 45 0 12 2 2 4 -23 4 -25 0 -35 -2 -22 -4z"/>
<path d="M4103 803 c15 -2 39 -2 55 0 15 2 2 4 -28 4 -30 0 -43 -2 -27 -4z"/>
<path d="M1312 789 c-37 -11 -76 -64 -97 -132 -20 -66 -1 -118 46 -130 18 -5
18 -4 -1 20 -24 31 -25 41 -5 80 8 17 19 51 24 77 10 56 12 59 51 61 30 2 39
-12 21 -30 -21 -22 -30 -98 -16 -133 13 -30 13 -36 -2 -59 -17 -25 -17 -26 7
-18 45 13 60 47 39 86 -12 22 9 98 37 134 16 20 16 20 32 -5 50 -76 145 -130
229 -130 57 0 81 14 28 17 -52 2 -115 41 -182 109 l-61 64 -59 -1 c-32 0 -73
-5 -91 -10z"/>
<path d="M1020 533 c0 -7 14 -28 30 -46 39 -44 38 -65 -2 -82 l-33 -14 28 -1
c36 0 70 34 61 63 -9 30 -24 47 -40 47 -7 0 -20 10 -28 22 -9 12 -16 17 -16
11z"/>
<path d="M3085 110 c-35 -22 -134 -40 -218 -40 -32 0 -95 -9 -140 -21 -45 -11
-118 -24 -162 -28 l-80 -7 70 -8 c54 -7 97 -4 195 12 69 11 150 23 181 26 63
5 149 38 175 67 21 23 18 23 -21 -1z"/>
<path d="M2170 105 c32 -38 159 -45 230 -12 34 15 33 16 -60 10 -52 -3 -114 0
-138 5 -36 8 -41 8 -32 -3z"/>
</g>
</svg>
